<?xml version="1.0" standalone="no"?><!DOCTYPE svg PUBLIC "-//W3C//DTD SVG 1.1//EN" "http://www.w3.org/Graphics/SVG/1.1/DTD/svg11.dtd"><svg t="1700545872164" class="icon" viewBox="0 0 1024 1024" version="1.1" xmlns="http://www.w3.org/2000/svg" p-id="4075" xmlns:xlink="http://www.w3.org/1999/xlink" width="200" height="200"><path d="M628.788401 860.96788c-156.419516 41.018206-276.28551-11.369955-360.63664-90.548272-56.298214-52.845579-91.666746-116.318192-113.919562-191.754279-19.123546-64.826448-17.156752-135.226844-17.156752-204.294896 0-35.853579 21.425985-117.000737 28.249391-149.291165-44.173059 68.923766-97.41568 195.908902-97.41568 283.84979 0 244.774843 198.428282 443.202101 443.202101 443.202101 109.120256 0 228.994438-83.092463 286.251489-167.253258-109.906156 49.204655-91.02411 55.753815-168.574347 76.089979z" p-id="4076" fill="#ffffff"></path><path d="M778.69355 126.683261c-50.2648-29.472242-107.173928-49.507554-168.623466-57.362453C408.554488 43.561122 179.874205 173.736926 158.036851 374.410342c95.056959-187.255825 241.003959-259.613806 415.513482-237.306754 55.538921 7.099698 107.371426 24.149003 153.940045 49.121767l51.203172-59.542094z" p-id="4077" fill="#ffffff"></path><path d="M587.919599 763.131621c-1.14201 0.574075-2.238994 1.2689-3.088339 2.340301-1.949398 2.451842-2.876514 9.362228-4.229324 12.541641-0.842181 1.99954-7.078209 10.007935-7.078209 11.590989-0.008186 1.462305 2.094708 3.603061 4.067642 5.649674-11.268648 2.230808-22.75833 3.78521-34.428114 4.735861 2.185782-2.75474 2.710738-5.172813-4.245697-5.503341 1.862417-5.057179 6.237051-7.946996 8.085142-12.850679 0.87902-2.310625 0.150426-3.226484 0.896416-5.509481 2.541893-7.91425 1.440815-4.930289 0.00614-11.073196a57.850569 57.850569 0 0 1-0.410346-1.922793H380.94364v-289.257963c-1.11438-0.542352-3.027963-2.387373-5.469571-5.703908-7.53665-10.237155-16.277732-20.418029-22.812565-31.257912-2.468215-4.097318-1.9934-6.745634-6.070253-10.636244-3.934612-3.759627-9.086959-5.591345-13.054317-9.16473-14.261818-12.831236-16.856923-29.957289-15.231913-48.238655 0.532119-5.962805 2.686179-10.731412 1.734504-16.458857-0.782829-4.758374-3.592828-8.691963-7.100722-12.199856-1.12973-1.799996-3.970428-6.235005-4.134157-6.520507-3.236718-5.375427-5.756097-10.667967-10.903327-15.081487-2.950192-2.542916-10.589173-8.481162-17.775852-13.46057 32.302707-40.290635 74.573439-72.222905 123.069966-92.044346 0.384763 2.434445 1.430582 4.869914 3.000334 7.19896 3.988848 5.913687 7.786337 5.447059 15.568581 7.080255-0.835018 9.035794-11.392468 9.106402-18.539239 8.128121-8.531304-1.173732-17.504676-4.004197-24.896016 3.469008 4.079922 2.456958 15.284101 12.014638 13.794167 2.029216 8.173147-0.409322 16.072047-0.653893 24.069186 0.323365 3.201925 0.391926 13.936407 3.997034 16.844643 2.350535 1.221828-0.690732 2.523473-6.708795 3.815909-8.566097-2.279926 0.01535-4.723581-1.136893-6.996345-0.919952 5.296633-6.779404 10.571776-1.456165 17.309225 1.657756-7.4159 4.508687-3.01466 15.310707 4.236487 6.535857 5.957689-7.218402-1.458211-12.452613-9.021467-16.659425 7.627724-9.53926 12.33391-10.403954 19.510356 0.36532 1.183965-6.640234 6.541997-3.980661 12.143574-3.492544v-1.659802c-2.465145 0.060375-5.098111-1.358951-7.53972-1.103125 5.708002-9.104355 2.065032-11.18576 10.220783-14.157441 6.500041-2.363837 25.035186-0.159636 27.319205-6.268774-12.972453 2.518357-28.64234 3.124154-40.34487 9.022491-5.046946 2.539846-11.06194 10.5728-16.098653 5.355985-5.164626-5.355985 3.696182-13.964036 8.227382-16.587794h-1.082658a305.208237 305.208237 0 0 1 63.587224-6.706748c14.090926 0 27.938306 1.042749 41.529858 2.898003-4.701069 2.469238-1.224898 4.137227-4.646833 6.664793-6.544043 4.808516-18.158568 8.826016-25.947975 11.867282 9.898441-0.026606 33.859155 9.279341 38.46915-4.603855-3.195785-0.48914-6.384407-0.980327-9.574053-1.473561 5.963829-3.954055 12.616342-7.15291 19.599383-9.502421 63.029522 12.487406 119.090329 44.458561 161.738662 89.314165a15.633049 15.633049 0 0 0-0.902556-0.00921c-11.874445 0.357134-20.150946 0.382717-29.696346 6.969739-3.845585 2.657526-6.456039 6.179746-11.335163 7.546883-4.380774 1.233084-9.105379 0.152473-13.44829 1.627057-15.665795 5.317099-13.184277 38.875402-33.827433 33.803897-9.699919-2.37714-16.535605-13.837146-21.411659-21.318538-4.304026-6.585999-12.130272-12.032034-6.843872-20.269649-2.410909 0.618077-4.984524-0.086981-7.358595 0.36225 3.304256-7.261381 14.399965-6.625908 16.24294-10.337439 4.593622-9.302877-12.655228-10.272971-17.535375-11.561314 5.886057-6.27696 8.865925 2.110057 14.679327 0.685616 5.584182-1.3743-2.950192-8.728802-6.297426-9.553587-1.198292-0.297782-20.865213 5.431709-9.487072-4.753257-14.049994-8.953929-28.096918-17.908882-42.146913-26.874068-2.366907 9.965979 18.699897 15.626909 25.581632 19.140943-1.071402 4.114714-7.470135 10.109242-12.366655 8.353248-4.621251-1.656733-2.7486-9.302877-9.719363-8.535397-4.970198 11.570523 10.527774 8.188496 11.964496 15.278985 1.63729 8.079002-5.862521 4.653997-8.741081 4.516874-0.686638-0.037862-6.058996-5.599532-6.348592-1.387604-0.349971 5.000897 8.567119 3.050476 9.194406 8.100492-10.386558 0.419556-15.686261-3.328815-24.143886-8.949836-9.870812-6.54916-14.936177-5.956665-27.025517-5.956665 3.617387-1.486864 8.593725-2.589988 11.686157-4.979408 1.689479-1.309832 8.318456-7.748475 8.762571-9.187243 1.865487-6.208399-0.107447-5.734608-6.0416-9.803274-5.28026-3.611248-11.678994-10.092869-18.077727-11.366885-23.173792-4.626367-7.142677 20.918425-24.735357 24.441669 0.302899 0.01535 0.626263 0.030699 0.889253 0.030699h-1.010004c0.047072-0.00307 0.079818-0.022513 0.120751-0.030699-4.068665-0.144286-11.692297-1.137916-14.319124 1.014096-1.852184 1.512447-2.000564 7.583722-4.074805 9.776668-3.676739 3.929496-9.166777 4.711302-13.561877 7.543813-4.287653 2.764973-13.739932 9.856485-16.261359 14.670118-9.283434 17.73492 20.913309 23.240307 32.363082 28.423352 5.172813 2.344395 20.287045 5.548366 23.106254 9.46149 3.773953 5.257747-3.257184 10.187013 4.629437 13.879102 2.51631 1.177825 7.712659 1.418302 9.876951-1.02126 3.526313-3.970428-1.427512-4.866844-2.273786-9.455349-1.64036-8.833179 1.054005-5.326309 5.500271-8.606005 9.055237-6.683213 7.010671-7.092535 3.758603-17.74413-1.515516-4.955872-7.220449-18.797112-2.203178-22.459524 6.54609-4.770653 20.50194 2.589988 25.523303 3.208065 5.843078 0.714268 9.152451 8.804527 12.34005 12.114922 2.111081 2.199085 5.89322 6.862291 9.587356 6.355754 5.862521-0.801249 3.40761-5.92699 6.809079-8.290826 9.118682-6.325056 11.524474 2.2656 15.158235 10.864442 3.417843 8.070816 6.65456 11.06808 12.743232 16.244985 2.828418 2.408863 15.214517 11.011798 14.046924 16.315594-0.794086 3.571339-14.945387 8.990768-18.73162 10.187014-13.83203 4.383844-39.778982-7.17133-42.566468 14.766308 5.367241-2.000564 20.632923-14.471596 25.210172-8.55791 2.087545 2.679016-1.650593 6.583952-0.775667 9.247619 2.614547 7.987928 8.772804 5.204535 15.228843 3.913122-0.442068 0.276293-0.889253 0.514723-1.367137 0.729618 8.823969-4.535293 7.904017-3.591805 11.955287-10.945283 1.320065-2.40477 3.290953-8.219195 5.152346-9.940397 6.41306-5.89629 7.399527-1.834788 11.373025 2.716878 1.040702 1.196245 10.863419 15.344476 7.363712 14.637372-11.422144-2.291183-22.394033-1.983167-31.871895 4.264117-5.462408 3.608178-10.624988 8.468882-17.144472 10.869558-1.565658 0.566912-13.137205 1.667989-11.770068-0.305968 1.99647-2.87856 8.871041-4.78191 11.580756-7.888668-7.513114-3.094478-13.790074 3.741207-19.690458 7.737219-4.287653 2.02717-6.325056 5.254677-8.890484 8.640797h286.716071c-46.430472-135.588071-174.97922-233.067196-326.304718-233.067196-190.45775 0-344.843956 154.386206-344.843956 344.836792 0 190.452633 154.387229 344.846002 344.839863 344.846003 82.608439 0 158.420079-29.060873 217.802538-77.499072H587.919599z" p-id="4078" fill="#ffffff"></path><path d="M361.948007 437.661921c-1.192152-0.264013 2.496867 8.562003 2.878561 9.272178 3.64297 6.746658 9.116635 12.909008 13.517874 19.193131 1.14815 1.64036 2.000564 3.039219 2.598175 4.189415v-15.241122l-0.106424-0.127913c-6.614651-8.162914-8.68787-15.113209-18.888186-17.285689zM688.105369 727.83165h-80.516802V573.069891c0-44.812625-16.138562-67.222007-48.41057-67.222008-15.386432 0-28.178783 5.981225-38.377052 17.934465-10.202363 11.957333-15.300474 27.214828-15.300474 45.776579v158.273746h-81.018222v-277.41831h81.018222v44.146453h1.00284c20.231787-33.94409 49.996694-50.918693 89.295745-50.918693 61.535495 0 92.305289 38.126342 92.305289 114.378003v169.811524zM751.548306 582.246901l99.239212-132.376937h-70.577428l-79.534428 116.254747c-2.62785 4.181229-5.255701 9.137101-7.881504 14.867616h-0.831948v10.567683h0.831948c2.746554 6.569626 5.194302 11.405771 7.345291 14.510482l84.011393 121.272018h74.876338L751.548306 582.246901z" p-id="4079" fill="#ffffff"></path><path d="M871.176894 500.455059c0-13.387915 4.002151-24.289196 12.004405-32.702819 8.003278-8.413624 18.252713-12.620435 30.755468-12.620435 12.806677 0 23.170722 4.299933 31.098275 12.891611 7.925507 8.594749 11.890818 19.403932 11.890818 32.431643 0 13.208836-4.040013 24.199145-12.117992 32.973996-8.082072 8.777921-18.372439 13.161764-30.871101 13.161764-12.348236 0-22.562878-4.430916-30.639834-13.29684-8.082072-8.862855-12.120039-19.812231-12.120039-32.83892z m21.187555 225.862098V567.313793h46.291302v159.003364h-46.291302z" p-id="4080" fill="#ffffff"></path></svg>